<svg aria-hidden="true" style="position: absolute; width: 0; height: 0; overflow: hidden;" version="1.1" xmlns="http://www.w3.org/2000/svg" xmlns:xlink="http://www.w3.org/1999/xlink">
<defs>
<symbol id="icon-bag" viewBox="0 0 32 32">
<path fill="#fff" style="fill: var(--color1, #fff)" d="M3.429 0h25.143c1.894 0 3.429 1.535 3.429 3.429v25.143c0 1.894-1.535 3.429-3.429 3.429h-25.143c-1.894 0-3.429-1.535-3.429-3.429v-25.143c0-1.894 1.535-3.429 3.429-3.429z"></path>
<path fill="none" stroke="#1e2438" style="stroke: var(--color2, #1e2438)" stroke-linejoin="round" stroke-linecap="round" stroke-miterlimit="4" stroke-width="1.1429" d="M18.143 15.143v-2.571c0-1.183-0.959-2.143-2.143-2.143s-2.143 0.959-2.143 2.143v0 2.571M20.346 14.004l0.722 6.857c0.040 0.38-0.257 0.71-0.639 0.71h-8.857c-0 0-0 0-0 0-0.355 0-0.643-0.288-0.643-0.643 0-0.024 0.001-0.047 0.004-0.070l-0 0.003 0.722-6.857c0.035-0.325 0.308-0.575 0.639-0.575 0 0 0 0 0 0h7.414c0.329 0 0.605 0.249 0.639 0.575zM14.071 15.143c0 0.118-0.096 0.214-0.214 0.214s-0.214-0.096-0.214-0.214v0c0-0.118 0.096-0.214 0.214-0.214s0.214 0.096 0.214 0.214v0 0zM18.357 15.143c0 0.118-0.096 0.214-0.214 0.214s-0.214-0.096-0.214-0.214v0c0-0.118 0.096-0.214 0.214-0.214s0.214 0.096 0.214 0.214v0 0z"></path>
</symbol>
<symbol id="icon-facebook" viewBox="0 0 33 32">
<path fill="#b1464a" style="fill: var(--color3, #b1464a)" d="M32.72 16c0 8.837-7.072 16-15.797 16s-15.797-7.163-15.797-16c0-8.837 7.072-16 15.797-16s15.797 7.163 15.797 16z"></path>
<path fill="#fff" style="fill: var(--color1, #fff)" d="M15.463 23.205v-6.347h-2.109v-2.473h2.109v-1.824c0-2.117 1.277-3.27 3.141-3.27 0.893 0 1.661 0.067 1.885 0.097v2.213h-1.294c-1.014 0-1.21 0.489-1.21 1.205v1.579h2.418l-0.314 2.473h-2.103v6.347h-2.522z"></path>
</symbol>
<symbol id="icon-git" viewBox="0 0 33 32">
<path fill="none" stroke="#d4d4d8" style="stroke: var(--color4, #d4d4d8)" stroke-linejoin="miter" stroke-linecap="butt" stroke-miterlimit="4" stroke-width="1.1429" d="M32.125 16c0 8.528-6.823 15.429-15.225 15.429-8.4 0-15.224-6.901-15.224-15.429s6.823-15.429 15.225-15.429c8.4 0 15.224 6.901 15.224 15.429z"></path>
<path fill="#fff" style="fill: var(--color1, #fff)" d="M17.584 8.259c-4.051 0-7.312 3.302-7.312 7.406 0 0.004 0 0.009 0 0.014 0 3.232 2.063 5.982 4.945 7.004l0.052 0.016c0.366 0.062 0.487-0.154 0.487-0.37v-1.265c-2.041 0.463-2.467-0.987-2.467-0.987-0.335-0.864-0.823-1.080-0.823-1.080-0.67-0.463 0.062-0.463 0.062-0.463 0.731 0.062 1.127 0.771 1.127 0.771 0.64 1.143 1.706 0.802 2.133 0.617 0.061-0.494 0.243-0.802 0.457-0.987-1.615-0.185-3.321-0.833-3.321-3.672 0-0.802 0.274-1.481 0.762-1.975-0.061-0.185-0.335-0.926 0.061-1.974 0 0 0.609-0.185 2.011 0.771 0.547-0.152 1.176-0.242 1.825-0.247h0.003c0.609 0 1.249 0.091 1.827 0.247 1.401-0.957 2.011-0.771 2.011-0.771 0.395 1.017 0.152 1.758 0.059 1.974 0.457 0.526 0.762 1.173 0.762 1.975 0 2.839-1.706 3.456-3.351 3.641 0.274 0.217 0.487 0.679 0.487 1.358v2.037c0 0.185 0.122 0.432 0.518 0.37 2.895-0.957 4.997-3.734 4.997-7.005 0-4.103-3.259-7.406-7.311-7.406z"></path>
</symbol>
<symbol id="icon-insta" viewBox="0 0 33 32">
<path fill="none" stroke="#d4d4d8" style="stroke: var(--color4, #d4d4d8)" stroke-linejoin="miter" stroke-linecap="butt" stroke-miterlimit="4" stroke-width="1.1429" d="M31.562 16c0 8.528-6.823 15.429-15.224 15.429s-15.225-6.901-15.225-15.429 6.823-15.429 15.225-15.429c8.401 0 15.224 6.901 15.224 15.429z"></path>
<path fill="#fff" style="fill: var(--color1, #fff)" d="M16.343 9.654c2.041 0 2.282 0.008 3.089 0.046 0.485 0.006 0.965 0.096 1.419 0.266 0.329 0.128 0.629 0.326 0.879 0.579 0.249 0.253 0.445 0.555 0.571 0.89 0.161 0.427 0.257 0.92 0.263 1.435l0 0.003c0.037 0.816 0.046 1.061 0.046 3.128s-0.009 2.312-0.046 3.128c-0.006 0.491-0.095 0.978-0.263 1.439-0.134 0.347-0.328 0.643-0.572 0.891l0-0c-0.25 0.253-0.549 0.45-0.88 0.578-0.454 0.171-0.934 0.261-1.418 0.267-0.806 0.037-1.048 0.045-3.089 0.045s-2.282-0.008-3.088-0.046c-0.512-0.007-0.998-0.104-1.448-0.276l0.029 0.010c-0.344-0.136-0.637-0.332-0.88-0.578l-0-0c-0.244-0.247-0.438-0.544-0.565-0.874l-0.006-0.018c-0.161-0.427-0.257-0.92-0.263-1.435l-0-0.003c-0.037-0.816-0.045-1.061-0.045-3.128s0.008-2.312 0.045-3.128c0.006-0.491 0.095-0.977 0.263-1.438 0.258-0.677 0.779-1.203 1.434-1.464l0.017-0.006c0.454-0.171 0.935-0.261 1.419-0.266 0.806-0.038 1.047-0.046 3.088-0.046zM16.343 8.259c-2.074 0-2.336 0.008-3.151 0.046-0.671 0.014-1.306 0.145-1.894 0.373l0.038-0.013c-0.51 0.194-0.971 0.499-1.353 0.894-0.389 0.386-0.69 0.854-0.882 1.371-0.213 0.557-0.342 1.201-0.355 1.874l-0 0.006c-0.037 0.824-0.046 1.089-0.046 3.191 0 2.101 0.009 2.366 0.046 3.192 0.014 0.678 0.143 1.323 0.369 1.92l-0.013-0.040c0.192 0.517 0.494 0.984 0.882 1.371 0.382 0.393 0.843 0.698 1.353 0.893 0.594 0.225 1.223 0.347 1.856 0.36 0.816 0.037 1.077 0.046 3.152 0.046s2.336-0.008 3.151-0.046c0.671-0.014 1.306-0.145 1.894-0.373l-0.038 0.013c0.507-0.199 0.969-0.503 1.353-0.894 0.385-0.39 0.686-0.857 0.882-1.371 0.222-0.601 0.343-1.238 0.354-1.88 0.037-0.825 0.046-1.090 0.046-3.191 0-2.102-0.009-2.366-0.046-3.192-0.014-0.678-0.143-1.323-0.369-1.92l0.013 0.040c-0.202-0.536-0.502-0.994-0.882-1.371l-0-0c-0.371-0.384-0.823-0.688-1.328-0.885l-0.025-0.009c-0.55-0.215-1.186-0.345-1.85-0.359l-0.006-0c-0.815-0.038-1.077-0.046-3.151-0.046z"></path>
<path fill="#fff" style="fill: var(--color1, #fff)" d="M16.343 12.026c-0.777 0-1.535 0.233-2.181 0.671-0.641 0.439-1.139 1.045-1.436 1.757l-0.010 0.026c-0.189 0.45-0.299 0.972-0.299 1.521 0 0.275 0.028 0.543 0.080 0.802l-0.004-0.026c0.151 0.773 0.526 1.481 1.074 2.037 0.531 0.539 1.216 0.924 1.984 1.084l0.025 0.004c0.23 0.049 0.495 0.076 0.766 0.076 0.542 0 1.058-0.111 1.527-0.312l-0.025 0.010c0.732-0.313 1.332-0.817 1.753-1.45l0.009-0.014c0.415-0.622 0.662-1.386 0.662-2.208 0-1.096-0.439-2.089-1.151-2.813l0.001 0.001c-0.707-0.718-1.689-1.164-2.776-1.165h-0zM16.343 18.583c-0.528-0-1.018-0.163-1.424-0.44l0.009 0.006c-0.417-0.285-0.74-0.68-0.932-1.142l-0.006-0.017c-0.122-0.291-0.193-0.63-0.193-0.985 0-0.711 0.284-1.356 0.745-1.827l-0 0c0.457-0.468 1.095-0.758 1.8-0.758 0.353 0 0.689 0.073 0.994 0.204l-0.016-0.006c0.465 0.194 0.863 0.526 1.143 0.951 0.269 0.403 0.429 0.899 0.429 1.432 0 0.711-0.285 1.355-0.746 1.825l0-0c-0.459 0.466-1.097 0.756-1.802 0.757h-0zM20.425 12.798c0.508-0.003 0.918-0.415 0.918-0.923 0-0.002 0-0.004-0-0.006v0c0-0.002 0-0.004 0-0.006 0-0.508-0.41-0.92-0.917-0.923h-0c-0.507 0.004-0.917 0.416-0.917 0.923 0 0.002 0 0.004 0 0.006v-0c0 0.514 0.41 0.929 0.917 0.929z"></path>
</symbol>
<symbol id="icon-logo" viewBox="0 0 32 32">
<path fill="#fff" style="fill: var(--color1, #fff)" d="M16.042 14.474c-0.486 0.153-0.991 0.234-1.5 0.242-0.79 0.028-1.571 0.173-2.319 0.429-1.648 0.507-1.516 1.615-1.274 2.404 0.007 0.023 0.845 2.256 3.925 1.31 1.56-0.48 1.847-2.009 2.151-3.63 0.087-0.462 0.175-0.929 0.294-1.375-0.383 0.286-0.816 0.497-1.278 0.621zM19.080 12.537c-0.678 0.6-0.89 1.702-1.11 2.871-0.052 0.275-0.106 0.557-0.167 0.839 0.035 0.001 0.076 0.002 0.117 0.002 0.403 0 0.79-0.067 1.151-0.19l-0.025 0.007c1.591-0.489 1.786-2.371 1.591-3.005-0.129-0.42-0.278-0.891-1.558-0.525zM10.998 30.989h0.002c0.178-0.217 0.446-0.354 0.746-0.354 0.098 0 0.193 0.015 0.282 0.042l-0.007-0.002 0.739 0.221c0.041 0.013 0.088 0.020 0.138 0.020 0.15 0 0.284-0.069 0.372-0.176l0.001-0.001 0.488-0.598c0.178-0.217 0.445-0.354 0.745-0.354 0.098 0 0.193 0.015 0.282 0.042l-0.007-0.002 0.739 0.221c0.041 0.013 0.089 0.020 0.138 0.020 0.15 0 0.284-0.069 0.372-0.176l0.001-0.001 0.489-0.598c0.178-0.217 0.445-0.354 0.745-0.354 0.098 0 0.193 0.015 0.282 0.042l-0.007-0.002 0.739 0.221c0.041 0.013 0.089 0.020 0.138 0.020 0.15 0 0.284-0.069 0.372-0.176l0.001-0.001 0.489-0.598c0.178-0.216 0.445-0.353 0.745-0.353 0.098 0 0.193 0.015 0.282 0.042l-0.007-0.002 0.739 0.221c0.041 0.013 0.088 0.020 0.138 0.020 0.15 0 0.284-0.069 0.372-0.176l0.001-0.001 0.489-0.598c0.178-0.217 0.445-0.354 0.745-0.354 0.098 0 0.193 0.015 0.282 0.042l-0.007-0.002 0.739 0.221c0.041 0.013 0.089 0.020 0.138 0.020 0.15 0 0.284-0.069 0.372-0.176l0.001-0.001 0.488-0.598c0.177-0.217 0.445-0.354 0.745-0.354 0.098 0 0.193 0.015 0.282 0.042l-0.007-0.002 0.74 0.221c0.041 0.013 0.088 0.020 0.137 0.020 0.15 0 0.283-0.068 0.372-0.176l0.001-0.001 0.489-0.598c0.178-0.216 0.445-0.353 0.745-0.353 0.098 0 0.192 0.015 0.282 0.042l-0.007-0.002c0.024 0.008 0.052 0.012 0.081 0.012 0.151 0 0.274-0.123 0.274-0.274 0-0.029-0.005-0.057-0.013-0.084l0.001 0.002-0.321-1.043-18.387 5.652 0.32 1.043c0.036 0.113 0.139 0.194 0.262 0.194 0.085 0 0.161-0.039 0.212-0.1l0-0zM5.038 5.385l-0.575 0.705c-0.178 0.217-0.445 0.354-0.745 0.354-0.098 0-0.193-0.015-0.282-0.042l0.007 0.002c-0.024-0.008-0.052-0.012-0.081-0.012-0.151 0-0.274 0.123-0.274 0.274 0 0.029 0.004 0.057 0.013 0.083l-0.001-0.002 0.321 1.042 18.387-5.651-0.32-1.043c-0.036-0.113-0.139-0.194-0.262-0.194-0.085 0-0.161 0.039-0.212 0.1l-0 0c-0.178 0.216-0.445 0.353-0.745 0.353-0.098 0-0.193-0.015-0.282-0.042l0.007 0.002-0.874-0.257c-0.023-0.007-0.050-0.012-0.078-0.012-0.085 0-0.161 0.039-0.211 0.1l-0 0-0.576 0.705c-0.178 0.217-0.445 0.354-0.745 0.354-0.098 0-0.193-0.015-0.282-0.042l0.007 0.002-0.871-0.26c-0.024-0.007-0.051-0.012-0.079-0.012-0.085 0-0.161 0.039-0.212 0.1l-0 0-0.575 0.705c-0.178 0.216-0.445 0.353-0.745 0.353-0.098 0-0.193-0.015-0.282-0.042l0.007 0.002-0.872-0.259c-0.024-0.007-0.051-0.012-0.079-0.012-0.085 0-0.161 0.039-0.212 0.1l-0 0.001-0.575 0.705c-0.178 0.217-0.445 0.354-0.745 0.354-0.098 0-0.193-0.015-0.282-0.042l0.007 0.002-0.872-0.26c-0.023-0.007-0.050-0.011-0.078-0.011-0.085 0-0.162 0.039-0.212 0.101l-0 0.001-0.576 0.705c-0.178 0.217-0.445 0.354-0.745 0.354-0.098 0-0.193-0.015-0.282-0.042l0.007 0.002-0.872-0.26c-0.024-0.007-0.050-0.012-0.079-0.012-0.085 0-0.161 0.039-0.211 0.1l-0 0-0.576 0.705c-0.178 0.216-0.445 0.353-0.745 0.353-0.098 0-0.193-0.015-0.282-0.042l0.007 0.002-0.871-0.259c-0.024-0.007-0.051-0.012-0.079-0.012-0.085 0-0.161 0.039-0.212 0.1l-0 0z"></path>
<path fill="#fff" style="fill: var(--color1, #fff)" d="M14.169 10.018c-4.565 1.403-7.451 5.223-6.438 8.52 1.013 3.295 5.547 4.835 10.111 3.432s7.451-5.223 6.438-8.519c-1.013-3.296-5.547-4.835-10.111-3.433zM19.329 16.986c-0.408 0.141-0.879 0.222-1.368 0.222-0.143 0-0.284-0.007-0.423-0.020l0.018 0.001c-0.363 1.143-0.997 2.158-2.399 2.589-3.379 1.039-4.87-1.109-5.127-1.946-0.538-1.751 0.159-3.067 1.911-3.606 0.757-0.267 1.632-0.436 2.541-0.469l0.016-0c0.453-0.008 0.885-0.081 1.293-0.21l-0.032 0.009c0.599-0.165 1.109-0.482 1.504-0.909l0.002-0.002c0.39-0.424 0.867-0.762 1.403-0.988l0.026-0.010c0.57-0.175 2.298-0.706 2.863 1.132 0.355 1.154-0.086 3.549-2.229 4.207z"></path>
<path fill="#fff" style="fill: var(--color1, #fff)" d="M22.192 3.024l-18.59 5.714c0.234 3.834 0.887 7.419 1.917 10.841l-0.087-0.335c1.209 3.718 2.696 6.934 4.506 9.932l-0.119-0.212 18.59-5.714c-0.234-3.834-0.887-7.419-1.917-10.841l0.087 0.335c-1.209-3.718-2.696-6.934-4.506-9.932l0.119 0.212zM18.126 22.89c-5.070 1.559-10.145-0.267-11.313-4.069s2.004-8.163 7.074-9.722c5.070-1.558 10.145 0.268 11.313 4.070s-2.003 8.163-7.074 9.721z"></path>
</symbol>
<symbol id="icon-logo-footer" viewBox="0 0 32 32">
<path fill="#fff" style="fill: var(--color1, #fff)" d="M16.042 14.474c-0.486 0.153-0.991 0.234-1.5 0.242-0.79 0.028-1.571 0.173-2.319 0.429-1.648 0.507-1.516 1.615-1.274 2.404 0.007 0.023 0.845 2.256 3.925 1.31 1.56-0.48 1.848-2.009 2.151-3.63 0.087-0.462 0.175-0.929 0.294-1.375-0.383 0.286-0.816 0.497-1.278 0.621zM19.080 12.537c-0.678 0.6-0.89 1.702-1.11 2.871-0.052 0.275-0.106 0.557-0.167 0.839 0.035 0.001 0.076 0.002 0.117 0.002 0.403 0 0.79-0.067 1.151-0.19l-0.025 0.007c1.591-0.489 1.786-2.371 1.592-3.005-0.129-0.42-0.278-0.891-1.558-0.525zM10.998 30.989h0.002c0.178-0.217 0.446-0.354 0.746-0.354 0.098 0 0.192 0.015 0.281 0.042l-0.007-0.002 0.739 0.221c0.041 0.013 0.088 0.020 0.138 0.020 0.15 0 0.284-0.069 0.372-0.176l0.001-0.001 0.488-0.598c0.178-0.217 0.445-0.354 0.745-0.354 0.098 0 0.193 0.015 0.282 0.042l-0.007-0.002 0.74 0.221c0.041 0.013 0.088 0.020 0.137 0.020 0.15 0 0.284-0.068 0.372-0.176l0.001-0.001 0.489-0.598c0.178-0.217 0.445-0.354 0.745-0.354 0.098 0 0.193 0.015 0.282 0.042l-0.007-0.002 0.739 0.221c0.041 0.013 0.089 0.020 0.138 0.020 0.15 0 0.284-0.069 0.372-0.176l0.001-0.001 0.489-0.598c0.178-0.216 0.445-0.353 0.745-0.353 0.098 0 0.193 0.015 0.282 0.042l-0.007-0.002 0.739 0.221c0.041 0.013 0.088 0.020 0.138 0.020 0.15 0 0.284-0.069 0.372-0.176l0.001-0.001 0.489-0.598c0.178-0.217 0.445-0.354 0.745-0.354 0.098 0 0.193 0.015 0.282 0.042l-0.007-0.002 0.739 0.221c0.041 0.013 0.089 0.020 0.138 0.020 0.15 0 0.284-0.069 0.372-0.176l0.001-0.001 0.489-0.598c0.177-0.217 0.445-0.354 0.745-0.354 0.098 0 0.193 0.015 0.282 0.042l-0.007-0.002 0.739 0.221c0.041 0.013 0.089 0.020 0.138 0.020 0.15 0 0.284-0.069 0.372-0.176l0.001-0.001 0.488-0.598c0.178-0.216 0.445-0.353 0.745-0.353 0.098 0 0.193 0.015 0.282 0.042l-0.007-0.002c0.024 0.008 0.052 0.012 0.080 0.012 0.151 0 0.274-0.123 0.274-0.274 0-0.029-0.005-0.057-0.013-0.084l0.001 0.002-0.32-1.043-18.389 5.652 0.321 1.043c0.036 0.113 0.139 0.194 0.262 0.194 0.085 0 0.161-0.039 0.212-0.1l0-0zM5.038 5.385l-0.575 0.705c-0.178 0.217-0.445 0.354-0.745 0.354-0.098 0-0.193-0.015-0.282-0.042l0.007 0.002c-0.024-0.008-0.052-0.012-0.081-0.012-0.151 0-0.274 0.123-0.274 0.274 0 0.029 0.004 0.057 0.013 0.083l-0.001-0.002 0.321 1.042 18.388-5.651-0.321-1.043c-0.036-0.113-0.139-0.194-0.262-0.194-0.085 0-0.161 0.039-0.212 0.1l-0 0c-0.178 0.216-0.445 0.353-0.745 0.353-0.098 0-0.193-0.015-0.282-0.042l0.007 0.002-0.874-0.257c-0.023-0.007-0.050-0.012-0.078-0.012-0.085 0-0.161 0.039-0.211 0.1l-0 0-0.575 0.705c-0.178 0.217-0.445 0.354-0.745 0.354-0.098 0-0.193-0.015-0.282-0.042l0.007 0.002-0.872-0.26c-0.024-0.007-0.051-0.012-0.079-0.012-0.085 0-0.161 0.039-0.212 0.1l-0 0-0.575 0.705c-0.178 0.216-0.445 0.353-0.745 0.353-0.098 0-0.193-0.015-0.282-0.042l0.007 0.002-0.872-0.259c-0.024-0.007-0.050-0.012-0.079-0.012-0.085 0-0.161 0.039-0.211 0.1l-0 0-0.576 0.705c-0.178 0.217-0.445 0.354-0.745 0.354-0.098 0-0.193-0.015-0.282-0.042l0.007 0.002-0.872-0.26c-0.023-0.007-0.050-0.011-0.078-0.011-0.085 0-0.162 0.039-0.212 0.101l-0 0.001-0.576 0.705c-0.178 0.217-0.445 0.354-0.745 0.354-0.098 0-0.193-0.015-0.282-0.042l0.007 0.002-0.872-0.26c-0.024-0.007-0.050-0.012-0.079-0.012-0.085 0-0.161 0.039-0.211 0.1l-0 0-0.576 0.705c-0.178 0.216-0.445 0.353-0.745 0.353-0.098 0-0.193-0.015-0.282-0.042l0.007 0.002-0.871-0.259c-0.024-0.007-0.051-0.012-0.079-0.012-0.085 0-0.161 0.039-0.212 0.1l-0 0z"></path>
<path fill="#fff" style="fill: var(--color1, #fff)" d="M14.169 10.018c-4.565 1.403-7.451 5.223-6.438 8.52 1.013 3.295 5.547 4.835 10.111 3.432s7.451-5.223 6.438-8.519c-1.013-3.296-5.547-4.835-10.111-3.433zM19.329 16.986c-0.408 0.141-0.879 0.222-1.368 0.222-0.143 0-0.284-0.007-0.423-0.020l0.018 0.001c-0.363 1.143-0.997 2.158-2.399 2.589-3.379 1.039-4.869-1.109-5.126-1.946-0.539-1.751 0.159-3.067 1.91-3.606 0.757-0.267 1.632-0.436 2.541-0.469l0.016-0c0.453-0.008 0.886-0.081 1.294-0.21l-0.032 0.009c0.598-0.165 1.109-0.483 1.504-0.909l0.002-0.002c0.39-0.424 0.867-0.762 1.403-0.988l0.026-0.010c0.57-0.175 2.299-0.706 2.864 1.132 0.354 1.154-0.087 3.549-2.229 4.207z"></path>
<path fill="#fff" style="fill: var(--color1, #fff)" d="M22.192 3.024l-18.59 5.714c0.235 3.834 0.888 7.419 1.918 10.841l-0.087-0.335c1.209 3.718 2.695 6.934 4.505 9.932l-0.119-0.212 18.59-5.714c-0.234-3.834-0.887-7.419-1.917-10.841l0.087 0.335c-1.209-3.718-2.696-6.934-4.506-9.932l0.119 0.212zM18.126 22.89c-5.070 1.559-10.145-0.267-11.313-4.069s2.004-8.163 7.074-9.722c5.070-1.558 10.145 0.268 11.313 4.070s-2.003 8.163-7.074 9.721z"></path>
</symbol>
<symbol id="icon-seacrh" viewBox="0 0 32 32">
<path fill="#fff" style="fill: var(--color1, #fff)" d="M3.429 0h25.143c1.894 0 3.429 1.535 3.429 3.429v25.143c0 1.894-1.535 3.429-3.429 3.429h-25.143c-1.894 0-3.429-1.535-3.429-3.429v-25.143c0-1.894 1.535-3.429 3.429-3.429z"></path>
<path fill="none" stroke="#1e2438" style="stroke: var(--color2, #1e2438)" stroke-linejoin="round" stroke-linecap="round" stroke-miterlimit="4" stroke-width="1.1429" d="M21.143 21.143l-2.305-2.305M18.838 18.838c0.846-0.846 1.369-2.015 1.369-3.306 0-2.582-2.093-4.675-4.675-4.675-1.291 0-2.46 0.523-3.306 1.369v0c-0.846 0.846-1.369 2.015-1.369 3.306 0 2.582 2.093 4.675 4.675 4.675 1.291 0 2.46-0.523 3.306-1.369v0z"></path>
</symbol>
<symbol id="icon-stars" viewBox="0 0 24 32">
<path d="M3.913 11.799l-3.913 0.988 3.913 0.989 0.977 3.954 1.142-3.954 3.913-0.989-3.913-0.988-1.304-4.448-0.815 4.448zM20.374 15.135l-2.212 0.576 2.212 0.577 0.553 2.306 0.645-2.306 2.212-0.577-2.212-0.576-0.737-2.595-0.461 2.595zM7.677 28.726l-1.191 0.329 1.191 0.329 0.298 1.318 0.347-1.318 1.191-0.329-1.191-0.329-0.397-1.483-0.248 1.483zM1.872 28.541l-1.872 0.576 1.872 0.577 0.468 2.306 0.546-2.306 1.872-0.577-1.872-0.576-0.624-2.595-0.39 2.595zM12.066 2.965l-2.552 0.659 2.552 0.659 0.638 2.636 0.744-2.636 2.552-0.659-2.552-0.659-0.851-2.965-0.532 2.965zM15.029 11.429l-1.191 0.329 1.191 0.329 0.298 1.318 0.347-1.318 1.191-0.329-1.191-0.329-0.397-1.483-0.248 1.483z"></path>
</symbol>
<symbol id="icon-twitter" viewBox="0 0 33 32">
<path fill="none" stroke="#d4d4d8" style="stroke: var(--color4, #d4d4d8)" stroke-linejoin="miter" stroke-linecap="butt" stroke-miterlimit="4" stroke-width="1.1429" d="M31.582 16c0 8.528-6.823 15.429-15.225 15.429-8.399 0-15.223-6.901-15.223-15.429s6.822-15.429 15.224-15.429c8.4 0 15.224 6.901 15.224 15.429z"></path>
<path fill="#fff" style="fill: var(--color1, #fff)" d="M23.358 12.552c-0.473 0.213-0.971 0.346-1.497 0.426 0.526-0.32 0.945-0.825 1.129-1.438-0.499 0.294-1.051 0.506-1.655 0.64-0.474-0.506-1.146-0.822-1.891-0.825h-0.001c-1.417 0-2.574 1.17-2.574 2.606 0 0.214 0.026 0.4 0.079 0.586-2.161-0.119-4.057-1.157-5.32-2.726l-0.011-0.014c-0.21 0.4-0.343 0.825-0.343 1.304 0 0.904 0.447 1.703 1.157 2.182-0.435-0.027-0.838-0.142-1.199-0.328l0.017 0.008v0.027c0 1.277 0.893 2.341 2.074 2.581-0.209 0.053-0.446 0.080-0.682 0.080-0.18-0.005-0.352-0.024-0.519-0.057l0.020 0.003c0.342 1.038 1.287 1.809 2.416 1.809-0.873 0.692-1.988 1.112-3.202 1.118h-0.001c-0.21 0-0.421 0-0.605-0.026 1.114 0.734 2.479 1.17 3.947 1.17 0.007 0 0.013 0 0.020-0h-0.001c4.754 0 7.354-3.991 7.354-7.449v-0.346c0.515-0.359 0.943-0.802 1.277-1.312l0.011-0.018z"></path>
</symbol>
<symbol id="icon-vector1" viewBox="0 0 38 32">
<path fill="#fff" style="fill: var(--color1, #fff)" d="M2.133 13.867c-1.178 0-2.133 0.955-2.133 2.133s0.955 2.133 2.133 2.133v0-4.267zM37.775 17.508c0.386-0.386 0.625-0.919 0.625-1.508s-0.239-1.122-0.625-1.508l-13.577-13.577c-0.39-0.415-0.942-0.673-1.555-0.673-1.178 0-2.133 0.955-2.133 2.133 0 0.613 0.259 1.166 0.673 1.555l0.001 0.001 12.066 12.068-12.068 12.068c-0.371 0.383-0.599 0.906-0.599 1.482 0 1.178 0.955 2.133 2.133 2.133 0.576 0 1.099-0.228 1.483-0.599l-0.001 0.001 13.577-13.577zM2.133 18.133h34.133v-4.267h-34.133v4.267z"></path>
</symbol>
<symbol id="icon-vector2" viewBox="0 0 92 32">
<path fill="#fff" style="fill: var(--color1, #fff)" d="M3.334 14c-1.105 0-2 0.895-2 2s0.895 2 2 2v0-4zM90.97 17.414c0.362-0.362 0.586-0.862 0.586-1.414s-0.224-1.052-0.586-1.414l-12.73-12.728c-0.364-0.377-0.874-0.611-1.439-0.611-1.105 0-2 0.895-2 2 0 0.565 0.234 1.074 0.61 1.438l0.001 0.001 11.316 11.314-11.314 11.314c-0.347 0.359-0.561 0.849-0.561 1.389 0 1.105 0.895 2 2 2 0.54 0 1.030-0.214 1.39-0.562l-0.001 0.001 12.728-12.728zM3.334 18h86.22v-4h-86.218v4z"></path>
</symbol>
<symbol id="icon-vector3" viewBox="0 0 38 32">
<path fill="#b1464a" style="fill: var(--color3, #b1464a)" d="M2.133 13.867c-1.178 0-2.133 0.955-2.133 2.133s0.955 2.133 2.133 2.133v0-4.267zM37.775 17.508c0.386-0.386 0.625-0.919 0.625-1.508s-0.239-1.122-0.625-1.508l-13.577-13.577c-0.39-0.415-0.942-0.673-1.555-0.673-1.178 0-2.133 0.955-2.133 2.133 0 0.613 0.259 1.166 0.673 1.555l0.001 0.001 12.066 12.068-12.068 12.068c-0.371 0.383-0.599 0.906-0.599 1.482 0 1.178 0.955 2.133 2.133 2.133 0.576 0 1.099-0.228 1.483-0.599l-0.001 0.001 13.577-13.577zM2.133 18.133h34.133v-4.267h-34.133v4.267z"></path>
</symbol>
<symbol id="icon-copyright" viewBox="0 0 28 32">
<path fill="none" stroke="#fff" style="stroke: var(--color1, #fff)" stroke-linejoin="miter" stroke-linecap="butt" stroke-miterlimit="4" stroke-width="1.8824" d="M27.294 17.882c0 7.277-5.899 13.176-13.176 13.176s-13.176-5.899-13.176-13.176c0-7.277 5.899-13.176 13.176-13.176s13.176 5.899 13.176 13.176z"></path>
<path fill="#fff" style="fill: var(--color1, #fff)" d="M13.86 23.016c0.486 0 0.934-0.1 1.346-0.299 0.412-0.198 0.751-0.471 1.016-0.815 0.264-0.354 0.414-0.753 0.452-1.203h1.939c-0.036 0.706-0.275 1.365-0.715 1.975-0.449 0.612-1.021 1.107-1.682 1.455l-0.027 0.013c-0.66 0.347-1.441 0.55-2.271 0.55-0.020 0-0.041-0-0.061-0l0.003 0c-0.896 0-1.679-0.158-2.349-0.474-0.66-0.314-1.212-0.753-1.648-1.292l-0.007-0.009c-0.423-0.539-0.758-1.17-0.97-1.856l-0.011-0.041c-0.203-0.671-0.32-1.443-0.32-2.241 0-0.015 0-0.030 0-0.044v0.002-0.463c0-0.802 0.107-1.559 0.32-2.272 0.221-0.731 0.556-1.367 0.99-1.921l-0.010 0.013c0.442-0.552 0.994-0.984 1.656-1.301 0.668-0.316 1.449-0.474 2.347-0.474 0.934 0 1.751 0.192 2.449 0.574 0.698 0.375 1.246 0.888 1.643 1.544 0.405 0.648 0.625 1.382 0.663 2.206h-1.943c-0.032-0.498-0.183-0.954-0.425-1.349l0.007 0.013c-0.238-0.397-0.567-0.718-0.958-0.94l-0.013-0.007c-0.389-0.229-0.858-0.364-1.357-0.364-0.023 0-0.046 0-0.069 0.001l0.003-0c-0.625 0-1.15 0.124-1.577 0.375-0.418 0.243-0.753 0.572-1.003 0.992-0.235 0.398-0.418 0.859-0.523 1.349l-0.005 0.030c-0.098 0.458-0.154 0.983-0.154 1.522 0 0.004 0 0.007 0 0.011v-0.001 0.463c0 0.521 0.051 1.035 0.154 1.544s0.275 0.968 0.518 1.38c0.25 0.412 0.584 0.742 1.005 0.992 0.425 0.245 0.954 0.365 1.587 0.365z"></path>
</symbol>
<symbol id="icon-insta1" viewBox="0 0 32 32">
<path d="M16 11.2c-2.651 0-4.8 2.149-4.8 4.8s2.149 4.8 4.8 4.8v0c2.651 0 4.8-2.149 4.8-4.8s-2.149-4.8-4.8-4.8v0zM16 8c4.418 0 8 3.582 8 8s-3.582 8-8 8v0c-4.418 0-8-3.582-8-8s3.582-8 8-8v0zM26.4 7.6c0 1.105-0.895 2-2 2s-2-0.895-2-2v0c0-1.105 0.895-2 2-2s2 0.895 2 2v0zM16 3.2c-3.958 0-4.605 0.011-6.446 0.093-1.254 0.059-2.096 0.227-2.877 0.531-0.678 0.253-1.256 0.637-1.727 1.124l-0.001 0.001c-0.489 0.472-0.873 1.050-1.116 1.696l-0.011 0.032c-0.304 0.784-0.472 1.624-0.53 2.877-0.083 1.766-0.093 2.384-0.093 6.446 0 3.958 0.011 4.605 0.093 6.446 0.059 1.253 0.227 2.096 0.53 2.875 0.272 0.696 0.592 1.197 1.123 1.728 0.539 0.538 1.040 0.859 1.728 1.125 0.79 0.306 1.632 0.475 2.88 0.533 1.766 0.083 2.384 0.093 6.446 0.093 3.958 0 4.605-0.011 6.446-0.093 1.251-0.059 2.094-0.227 2.875-0.53 0.677-0.255 1.254-0.637 1.727-1.122l0.001-0.001c0.539-0.539 0.861-1.040 1.126-1.728 0.304-0.789 0.474-1.632 0.531-2.88 0.083-1.766 0.093-2.384 0.093-6.446 0-3.958-0.011-4.605-0.093-6.446-0.059-1.251-0.227-2.096-0.531-2.877-0.255-0.678-0.638-1.255-1.124-1.727l-0.001-0.001c-0.472-0.489-1.050-0.873-1.696-1.116l-0.032-0.010c-0.784-0.304-1.626-0.472-2.877-0.53-1.766-0.083-2.384-0.093-6.446-0.093zM16 0c4.347 0 4.89 0.016 6.595 0.096 1.704 0.080 2.864 0.347 3.885 0.744 1.056 0.406 1.946 0.957 2.835 1.845 0.814 0.8 1.443 1.768 1.845 2.835 0.395 1.019 0.664 2.181 0.744 3.885 0.075 1.706 0.096 2.248 0.096 6.595s-0.016 4.89-0.096 6.595c-0.080 1.704-0.349 2.864-0.744 3.885-0.423 1.11-1.051 2.056-1.844 2.834l-0.001 0.001c-0.8 0.813-1.768 1.443-2.835 1.845-1.019 0.395-2.181 0.664-3.885 0.744-1.706 0.075-2.248 0.096-6.595 0.096s-4.89-0.016-6.595-0.096c-1.704-0.080-2.864-0.349-3.885-0.744-1.11-0.423-2.056-1.051-2.834-1.844l-0.001-0.001c-0.793-0.78-1.421-1.726-1.827-2.782l-0.018-0.054c-0.397-1.019-0.664-2.181-0.744-3.885-0.075-1.706-0.096-2.248-0.096-6.595s0.016-4.89 0.096-6.595c0.080-1.706 0.347-2.864 0.744-3.885 0.423-1.11 1.051-2.056 1.844-2.834l0.001-0.001c0.78-0.794 1.726-1.421 2.782-1.827l0.054-0.018c1.021-0.397 2.179-0.664 3.885-0.744 1.706-0.075 2.248-0.096 6.595-0.096z"></path>
</symbol>
<symbol id="icon-linkedin" viewBox="0 0 36 32">
<path d="M8.784 3.556c-0.001 1.963-1.593 3.554-3.556 3.554s-3.556-1.592-3.556-3.556c0-0.001 0-0.001 0-0.002v0c0.001-1.963 1.592-3.554 3.556-3.554s3.556 1.592 3.556 3.556c0 0.001 0 0.001 0 0.002v-0zM8.891 9.742h-7.111v22.258h7.111v-22.258zM20.126 9.742h-7.076v22.258h7.004v-11.68c0-6.507 8.48-7.111 8.48 0v11.68h7.022v-14.098c0-10.969-12.551-10.56-15.502-5.173l0.071-2.987z"></path>
</symbol>
<symbol id="icon-telegram" viewBox="0 0 32 32">
<path d="M1.406 11.23c-0.777-0.312-0.768-0.777 0.052-1.050l29.083-9.694c0.806-0.268 1.268 0.183 1.042 0.972l-8.311 29.083c-0.229 0.806-0.724 0.843-1.093 0.107l-6.942-13.886-13.832-5.531zM8.858 10.926l8.588 3.436 4.632 9.268 5.403-18.91-18.624 6.206z"></path>
</symbol>
<symbol id="icon-twitter1" viewBox="0 0 39 32">
<path d="M37.618 4.722c-1.243 0.566-2.686 0.977-4.198 1.163l-0.072 0.007c1.538-0.931 2.695-2.361 3.256-4.061l0.015-0.053c-1.458 0.868-3.056 1.476-4.722 1.804-1.36-1.453-3.29-2.358-5.432-2.358-4.106 0-7.435 3.329-7.435 7.435 0 0.604 0.072 1.192 0.208 1.755l-0.010-0.051c-6.194-0.32-11.642-3.263-15.295-7.731l-0.030-0.038c-0.632 1.068-1.006 2.355-1.006 3.728 0 0.004 0 0.007 0 0.011v-0.001c0 2.578 1.312 4.853 3.307 6.187-1.242-0.040-2.396-0.379-3.404-0.947l0.037 0.019v0.092c0.002 3.585 2.539 6.578 5.916 7.28l0.048 0.008c-0.588 0.166-1.264 0.262-1.961 0.262-0.495 0-0.978-0.048-1.446-0.14l0.047 0.008c0.977 2.978 3.706 5.102 6.939 5.164l0.007 0c-2.511 1.986-5.724 3.187-9.216 3.187-0.63 0-1.251-0.039-1.861-0.115l0.073 0.007c3.215 2.096 7.15 3.342 11.376 3.342 0.007 0 0.014 0 0.021 0h-0.001c13.675 0 21.156-11.33 21.156-21.156 0-0.32-0.011-0.644-0.025-0.96 1.461-1.064 2.692-2.339 3.676-3.795l0.034-0.053v-0.002z"></path>
</symbol>
<symbol id="icon-vector-big" viewBox="0 0 60 32">
<path fill="none" stroke="#fff" style="stroke: var(--color1, #fff)" stroke-linejoin="miter" stroke-linecap="butt" stroke-miterlimit="4" stroke-width="2.3704" d="M0.593 16.593h59.259M41.481 1.185c2.963 5.135 10.667 15.407 17.778 15.407M41.481 30.815c2.963-4.741 10.667-14.222 17.778-14.222"></path>
</symbol>
<symbol id="icon-vector-purple" viewBox="0 0 46 32">
<path d="M45.406 17.414c0.362-0.362 0.586-0.862 0.586-1.414s-0.224-1.052-0.586-1.414l-12.726-12.728c-0.364-0.377-0.874-0.611-1.439-0.611-1.105 0-2 0.895-2 2 0 0.565 0.234 1.074 0.61 1.438l0.001 0.001 11.312 11.314-11.314 11.314c-0.347 0.359-0.561 0.849-0.561 1.389 0 1.105 0.895 2 2 2 0.54 0 1.030-0.214 1.39-0.562l-0.001 0.001 12.728-12.728zM0 18h43.992v-4h-43.992v4z"></path>
</symbol>
<symbol id="icon-vector-small" viewBox="0 0 41 32">
<path fill="none" stroke="#fff" style="stroke: var(--color1, #fff)" stroke-linejoin="miter" stroke-linecap="butt" stroke-miterlimit="4" stroke-width="2.6667" d="M0.667 17.333h40M22 1.333c3.111 5.333 11.2 16 18.667 16M22 30.667c3.111-4.444 11.2-13.333 18.667-13.333"></path>
</symbol>
</defs>
</svg>
