<svg xmlns="http://www.w3.org/2000/svg" width="29" height="28" fill="none"><path stroke="#D4D4D8" d="M28.109 14c0 7.462-5.97 13.5-13.322 13.5-7.35 0-13.321-6.038-13.321-13.5S7.436.5 14.788.5c7.35 0 13.321 6.038 13.321 13.5Z"/><path fill="#fff" fill-rule="evenodd" d="M15.386 7.227c-3.545 0-6.398 2.889-6.398 6.48a6.501 6.501 0 0 0 4.372 6.155c.32.054.426-.135.426-.324v-1.107c-1.786.405-2.159-.864-2.159-.864-.293-.756-.72-.945-.72-.945-.586-.405.054-.405.054-.405.64.054.986.675.986.675.56 1 1.493.702 1.866.54.053-.432.213-.702.4-.864-1.413-.162-2.906-.729-2.906-3.213 0-.702.24-1.296.667-1.728-.053-.162-.293-.81.053-1.727 0 0 .533-.162 1.76.675a6.346 6.346 0 0 1 1.599-.216c.533 0 1.093.08 1.599.216 1.226-.837 1.76-.675 1.76-.675.346.89.133 1.538.052 1.727.4.46.667 1.026.667 1.728 0 2.484-1.493 3.024-2.932 3.186.24.19.426.594.426 1.188v1.782c0 .162.107.378.453.324 2.533-.837 4.372-3.267 4.372-6.129 0-3.59-2.852-6.48-6.397-6.48Z" clip-rule="evenodd"/></svg>