<svg xmlns="http://www.w3.org/2000/svg" width="29" height="28" fill="none"><path stroke="#D4D4D8" d="M27.617 14c0 7.462-5.97 13.5-13.321 13.5S.974 21.462.974 14 6.944.5 14.296.5C21.647.5 27.617 6.538 27.617 14Z"/><path fill="#fff" d="M14.3 8.447c1.786 0 1.997.007 2.703.04.424.005.844.084 1.242.233.288.112.55.285.769.507.218.221.389.486.5.779a3.8 3.8 0 0 1 .23 1.258c.032.714.04.928.04 2.737 0 1.809-.008 2.023-.04 2.737-.005.43-.083.856-.23 1.259a2.248 2.248 0 0 1-.5.779c-.219.221-.48.394-.77.506-.397.15-.817.228-1.241.234-.705.032-.917.039-2.703.039-1.786 0-1.997-.007-2.702-.04a3.669 3.669 0 0 1-1.242-.233 2.213 2.213 0 0 1-.77-.506 2.247 2.247 0 0 1-.5-.78 3.802 3.802 0 0 1-.23-1.258c-.032-.714-.039-.928-.039-2.737 0-1.809.007-2.023.039-2.737.005-.43.083-.855.23-1.258a2.212 2.212 0 0 1 1.27-1.286c.397-.15.818-.228 1.242-.233.705-.033.916-.04 2.702-.04Zm0-1.22c-1.815 0-2.044.007-2.757.04a4.855 4.855 0 0 0-1.624.315c-.446.17-.85.437-1.184.782-.34.338-.604.747-.772 1.2a5.03 5.03 0 0 0-.311 1.645c-.032.721-.04.953-.04 2.792 0 1.838.008 2.07.04 2.793a5.03 5.03 0 0 0 .311 1.645c.168.452.432.861.772 1.2.334.344.738.611 1.184.781.52.197 1.07.304 1.624.315.714.032.942.04 2.758.04s2.044-.007 2.757-.04a4.853 4.853 0 0 0 1.624-.315c.444-.174.848-.44 1.184-.782.337-.341.6-.75.772-1.2.194-.526.3-1.083.31-1.645.032-.722.04-.954.04-2.792 0-1.839-.008-2.07-.04-2.793a5.029 5.029 0 0 0-.311-1.645 3.323 3.323 0 0 0-.772-1.2 3.272 3.272 0 0 0-1.184-.782 4.856 4.856 0 0 0-1.624-.314c-.713-.033-.942-.04-2.757-.04Z"/><path fill="#fff" d="M14.3 10.523c-.68 0-1.343.204-1.908.587a3.47 3.47 0 0 0-1.265 1.56 3.52 3.52 0 0 0-.195 2.01c.132.676.46 1.296.94 1.782a3.42 3.42 0 0 0 1.758.952 3.394 3.394 0 0 0 1.984-.198 3.445 3.445 0 0 0 1.542-1.281 3.511 3.511 0 0 0-.427-4.393 3.412 3.412 0 0 0-2.429-1.019Zm0 5.737a2.21 2.21 0 0 1-1.238-.38 2.252 2.252 0 0 1-.821-1.014 2.285 2.285 0 0 1 .483-2.46 2.202 2.202 0 0 1 2.43-.49c.407.17.755.46 1 .832a2.28 2.28 0 0 1-.277 2.85 2.215 2.215 0 0 1-1.577.662ZM17.872 11.198a.808.808 0 0 0 .803-.813.808.808 0 0 0-.803-.813.808.808 0 0 0-.802.813c0 .45.359.813.802.813Z"/></svg>