<svg xmlns="http://www.w3.org/2000/svg" width="56" height="56" fill="none"><g fill="#fff" clip-path="url(#a)"><path d="M28.073 25.33c-.85.268-1.734.41-2.625.423-1.382.049-2.75.302-4.058.751-2.884.887-2.653 2.826-2.229 4.207.013.04 1.478 3.948 6.868 2.292 2.73-.84 3.234-3.516 3.765-6.352.152-.808.306-1.625.515-2.407-.67.501-1.428.87-2.236 1.087ZM33.39 21.939c-1.186 1.05-1.558 2.978-1.942 5.025-.091.482-.185.975-.292 1.468a6.243 6.243 0 0 0 2.175-.316c2.785-.856 3.126-4.15 2.786-5.258-.226-.735-.487-1.56-2.727-.919ZM19.247 54.23h.004a1.683 1.683 0 0 1 1.785-.55l1.294.387a.841.841 0 0 0 .893-.275l.854-1.046a1.683 1.683 0 0 1 1.785-.549l1.295.386a.842.842 0 0 0 .892-.274l.855-1.047a1.683 1.683 0 0 1 1.785-.549l1.294.386a.842.842 0 0 0 .893-.274l.855-1.047a1.683 1.683 0 0 1 1.785-.548l1.294.386a.841.841 0 0 0 .893-.275l.855-1.046a1.683 1.683 0 0 1 1.785-.549l1.294.386a.842.842 0 0 0 .893-.274l.855-1.047a1.68 1.68 0 0 1 1.785-.549l1.294.386a.842.842 0 0 0 .893-.274l.854-1.047a1.683 1.683 0 0 1 1.785-.548.48.48 0 0 0 .599-.602l-.56-1.825-32.18 9.891.561 1.825a.48.48 0 0 0 .83.163ZM8.817 9.423 7.81 10.656a1.683 1.683 0 0 1-1.785.549.48.48 0 0 0-.6.6l.561 1.824 32.179-9.89-.561-1.825a.48.48 0 0 0-.83-.163 1.683 1.683 0 0 1-1.785.548l-1.53-.45a.478.478 0 0 0-.508.156l-1.007 1.233a1.683 1.683 0 0 1-1.785.549l-1.526-.455a.478.478 0 0 0-.509.156l-1.007 1.234a1.683 1.683 0 0 1-1.785.548l-1.526-.454a.478.478 0 0 0-.508.156L22.29 6.205a1.683 1.683 0 0 1-1.785.549l-1.526-.455a.478.478 0 0 0-.508.157l-1.008 1.233a1.683 1.683 0 0 1-1.785.549l-1.526-.455a.478.478 0 0 0-.508.156l-1.008 1.234a1.683 1.683 0 0 1-1.785.548l-1.525-.454a.478.478 0 0 0-.509.156Z"/><path d="M24.795 17.532c-7.988 2.456-13.039 9.141-11.266 14.91 1.773 5.767 9.707 8.462 17.695 6.006 7.988-2.455 13.039-9.14 11.266-14.909-1.773-5.768-9.707-8.462-17.695-6.007Zm9.03 12.193a7.58 7.58 0 0 1-3.104.355c-.636 2-1.745 3.776-4.198 4.53-5.913 1.818-8.521-1.94-8.971-3.405-.943-3.065.278-5.368 3.343-6.31a15.611 15.611 0 0 1 4.475-.822 7.897 7.897 0 0 0 2.208-.352 5.56 5.56 0 0 0 2.635-1.594 7.047 7.047 0 0 1 2.501-1.746c.998-.307 4.023-1.236 5.012 1.981.62 2.02-.152 6.21-3.9 7.363Z"/><path d="m38.836 5.292-32.532 10a82.831 82.831 0 0 0 3.204 18.386 82.675 82.675 0 0 0 7.676 17.01l32.532-10a82.831 82.831 0 0 0-3.203-18.385 82.674 82.674 0 0 0-7.677-17.01ZM31.72 40.057c-8.873 2.728-17.753-.468-19.798-7.121-2.045-6.653 3.507-14.285 12.38-17.013 8.873-2.727 17.753.469 19.798 7.122 2.045 6.653-3.506 14.285-12.38 17.012Z"/></g><defs><clipPath id="a"><path fill="#fff" d="M0 0h56v56H0z"/></clipPath></defs></svg>