<svg xmlns="http://www.w3.org/2000/svg" width="55" height="74" fill="none"><g fill="#1E2438" opacity=".3"><path d="M9.05 27.286 0 29.57l9.05 2.286L11.31 41l2.64-9.143L23 29.571l-9.05-2.285L10.935 17 9.05 27.286ZM47.115 35 42 36.333l5.115 1.334L48.393 43l1.492-5.333L55 36.333 49.885 35l-1.705-6-1.065 6ZM17.754 66.429 15 67.19l2.754.762.689 3.048.803-3.048L22 67.191l-2.754-.762L18.328 63l-.574 3.429ZM4.328 66 0 67.333l4.328 1.334L5.41 74l1.262-5.333L11 67.333 6.672 66 5.23 60l-.902 6ZM27.902 6.857 22 8.381l5.902 1.524L29.377 16l1.721-6.095L37 8.38l-5.902-1.524L29.131 0l-1.23 6.857ZM34.754 26.429 32 27.19l2.754.761.689 3.048.803-3.048L39 27.19l-2.754-.761L35.328 23l-.574 3.429Z"/></g></svg>