<svg xmlns="http://www.w3.org/2000/svg" width="12" height="10" fill="none"><path fill="#fff" d="M11.438 1.983c-.414.186-.85.303-1.31.373.46-.28.827-.722.988-1.257-.437.256-.92.442-1.448.558A2.277 2.277 0 0 0 8.013.936c-1.24 0-2.252 1.024-2.252 2.28 0 .187.023.35.069.513a6.412 6.412 0 0 1-4.666-2.398c-.183.35-.298.722-.298 1.141 0 .791.39 1.49 1.01 1.909A2.633 2.633 0 0 1 .844 4.1v.024c0 1.117.781 2.048 1.815 2.258-.184.046-.39.07-.597.07-.138 0-.299-.024-.437-.047.299.908 1.126 1.583 2.114 1.583a4.56 4.56 0 0 1-2.803.978c-.184 0-.368 0-.529-.023a6.336 6.336 0 0 0 3.47 1.024c4.16 0 6.435-3.492 6.435-6.518v-.303a4.154 4.154 0 0 0 1.127-1.164Z"/></svg>