<svg xmlns="http://www.w3.org/2000/svg" width="29" height="28" fill="none"><path stroke="#D4D4D8" d="M27.634 14c0 7.462-5.97 13.5-13.322 13.5C6.963 27.5.992 21.462.992 14S6.961.5 14.313.5c7.35 0 13.321 6.038 13.321 13.5Z"/><path fill="#fff" d="M20.438 10.983c-.414.186-.85.303-1.31.373.46-.28.827-.722.988-1.258-.437.257-.92.443-1.448.56a2.277 2.277 0 0 0-1.655-.722c-1.24 0-2.252 1.024-2.252 2.28 0 .187.023.35.069.513a6.412 6.412 0 0 1-4.665-2.398c-.184.35-.3.722-.3 1.141 0 .791.391 1.49 1.012 1.909a2.632 2.632 0 0 1-1.034-.28v.024c0 1.117.781 2.048 1.815 2.258-.183.046-.39.07-.597.07a2.78 2.78 0 0 1-.437-.047c.299.908 1.126 1.583 2.114 1.583a4.561 4.561 0 0 1-2.803.978c-.184 0-.368 0-.529-.023a6.336 6.336 0 0 0 3.47 1.024c4.16 0 6.435-3.492 6.435-6.518v-.303a4.155 4.155 0 0 0 1.127-1.164Z"/></svg>