<svg width="46" height="16" viewBox="0 0 46 16" fill="none" xmlns="http://www.w3.org/2000/svg">
<path d="M1.66666 7C1.11437 7 0.666656 7.44772 0.666656 8C0.666656 8.55228 1.11437 9 1.66666 9V7ZM45.4849 8.70711C45.8754 8.31658 45.8754 7.68342 45.4849 7.29289L39.1209 0.928932C38.7304 0.538408 38.0972 0.538408 37.7067 0.928932C37.3162 1.31946 37.3162 1.95262 37.7067 2.34315L43.3636 8L37.7067 13.6569C37.3162 14.0474 37.3162 14.6805 37.7067 15.0711C38.0972 15.4616 38.7304 15.4616 39.1209 15.0711L45.4849 8.70711ZM1.66666 9H44.7778V7H1.66666V9Z" fill="white"/>
</svg>
